<svg width="171" height="12" viewBox="0 0 171 12" fill="none" xmlns="http://www.w3.org/2000/svg">
<path d="M1.338 9.81L0.96 9.67L6.406 3.118H7.918L1.254 11H0.05V0.219999H1.338V9.81ZM4.04 7.066L4.866 6.1L8.17 11H6.63L4.04 7.066ZM16.4267 11L16.1467 8.018L16.4967 7.052L16.1467 6.1L16.4267 3.118H17.7427L17.3787 7.052L17.7427 11H16.4267ZM16.9307 7.052C16.7254 7.87333 16.4081 8.59667 15.9787 9.222C15.5587 9.838 15.0454 10.3187 14.4387 10.664C13.8414 11.0093 13.1787 11.182 12.4507 11.182C11.6761 11.182 10.9901 11.0093 10.3927 10.664C9.79539 10.3093 9.32405 9.824 8.97872 9.208C8.64272 8.58267 8.47472 7.864 8.47472 7.052C8.47472 6.23067 8.64272 5.512 8.97872 4.896C9.32405 4.28 9.79539 3.79933 10.3927 3.454C10.9901 3.10867 11.6761 2.936 12.4507 2.936C13.1787 2.936 13.8414 3.10867 14.4387 3.454C15.0454 3.79933 15.5634 4.28 15.9927 4.896C16.4221 5.512 16.7347 6.23067 16.9307 7.052ZM9.79072 7.052C9.79072 7.64933 9.91205 8.17667 10.1547 8.634C10.4067 9.09133 10.7474 9.45067 11.1767 9.712C11.6154 9.964 12.1101 10.09 12.6607 10.09C13.2207 10.09 13.7341 9.964 14.2007 9.712C14.6767 9.45067 15.0967 9.09133 15.4607 8.634C15.8341 8.17667 16.1374 7.64933 16.3707 7.052C16.1374 6.45467 15.8341 5.92733 15.4607 5.47C15.0967 5.01267 14.6767 4.658 14.2007 4.406C13.7341 4.14467 13.2207 4.014 12.6607 4.014C12.1101 4.014 11.6154 4.14467 11.1767 4.406C10.7474 4.658 10.4067 5.01267 10.1547 5.47C9.91205 5.92733 9.79072 6.45467 9.79072 7.052ZM20.9571 9.81L20.5791 9.67L26.0251 3.118H27.5371L20.8731 11H19.6691V0.219999H20.9571V9.81ZM23.6591 7.066L24.4851 6.1L27.7891 11H26.2491L23.6591 7.066ZM28.4926 3.118H29.7806L30.2286 5.806V11H28.9406V5.568L28.4926 3.118ZM34.4146 3.09V4.252C34.2373 4.196 34.0273 4.154 33.7846 4.126C33.5513 4.098 33.3273 4.084 33.1126 4.084C32.5526 4.084 32.0533 4.21 31.6146 4.462C31.176 4.714 30.8353 5.08267 30.5926 5.568C30.35 6.044 30.2286 6.60867 30.2286 7.262L29.8646 6.758C29.8833 6.20733 29.972 5.69867 30.1306 5.232C30.2893 4.76533 30.5133 4.364 30.8026 4.028C31.1013 3.68267 31.456 3.41667 31.8666 3.23C32.2866 3.034 32.758 2.936 33.2806 2.936C33.4766 2.936 33.6773 2.95 33.8826 2.978C34.0973 3.006 34.2746 3.04333 34.4146 3.09ZM42.7451 11L42.4651 8.018L42.8151 7.052L42.4651 6.1L42.7451 3.118H44.0611L43.6971 7.052L44.0611 11H42.7451ZM43.2491 7.052C43.0437 7.87333 42.7264 8.59667 42.2971 9.222C41.8771 9.838 41.3637 10.3187 40.7571 10.664C40.1597 11.0093 39.4971 11.182 38.7691 11.182C37.9944 11.182 37.3084 11.0093 36.7111 10.664C36.1137 10.3093 35.6424 9.824 35.2971 9.208C34.9611 8.58267 34.7931 7.864 34.7931 7.052C34.7931 6.23067 34.9611 5.512 35.2971 4.896C35.6424 4.28 36.1137 3.79933 36.7111 3.454C37.3084 3.10867 37.9944 2.936 38.7691 2.936C39.4971 2.936 40.1597 3.10867 40.7571 3.454C41.3637 3.79933 41.8817 4.28 42.3111 4.896C42.7404 5.512 43.0531 6.23067 43.2491 7.052ZM36.1091 7.052C36.1091 7.64933 36.2304 8.17667 36.4731 8.634C36.7251 9.09133 37.0657 9.45067 37.4951 9.712C37.9337 9.964 38.4284 10.09 38.9791 10.09C39.5391 10.09 40.0524 9.964 40.5191 9.712C40.9951 9.45067 41.4151 9.09133 41.7791 8.634C42.1524 8.17667 42.4557 7.64933 42.6891 7.052C42.4557 6.45467 42.1524 5.92733 41.7791 5.47C41.4151 5.01267 40.9951 4.658 40.5191 4.406C40.0524 4.14467 39.5391 4.014 38.9791 4.014C38.4284 4.014 37.9337 4.14467 37.4951 4.406C37.0657 4.658 36.7251 5.01267 36.4731 5.47C36.2304 5.92733 36.1091 6.45467 36.1091 7.052ZM53.6735 8.69C53.6735 9.194 53.5195 9.63267 53.2115 10.006C52.9128 10.3793 52.4695 10.6687 51.8815 10.874C51.3028 11.0793 50.5982 11.182 49.7675 11.182C48.9182 11.182 48.1668 11.0653 47.5135 10.832C46.8695 10.5893 46.3655 10.2533 46.0015 9.824C45.6375 9.39467 45.4415 8.89533 45.4135 8.326H46.7295C46.7855 8.69 46.9488 9.012 47.2195 9.292C47.4902 9.56267 47.8448 9.77267 48.2835 9.922C48.7222 10.0713 49.2215 10.146 49.7815 10.146C50.5935 10.146 51.2282 10.0247 51.6855 9.782C52.1522 9.53 52.3855 9.18933 52.3855 8.76C52.3855 8.424 52.2362 8.17667 51.9375 8.018C51.6388 7.85 51.0835 7.724 50.2715 7.64L48.7455 7.486C47.9895 7.41133 47.3828 7.276 46.9255 7.08C46.4775 6.87467 46.1555 6.62267 45.9595 6.324C45.7635 6.016 45.6655 5.67533 45.6655 5.302C45.6655 4.78867 45.8195 4.35933 46.1275 4.014C46.4448 3.65933 46.8835 3.39333 47.4435 3.216C48.0035 3.02933 48.6522 2.936 49.3895 2.936C50.1735 2.936 50.8688 3.048 51.4755 3.272C52.0915 3.496 52.5815 3.80867 52.9455 4.21C53.3095 4.61133 53.5102 5.07333 53.5475 5.596H52.2455C52.1988 5.29733 52.0588 5.02667 51.8255 4.784C51.5922 4.532 51.2655 4.33133 50.8455 4.182C50.4348 4.03267 49.9262 3.958 49.3195 3.958C48.5728 3.958 47.9895 4.06533 47.5695 4.28C47.1588 4.49467 46.9535 4.80733 46.9535 5.218C46.9535 5.51667 47.0888 5.75467 47.3595 5.932C47.6302 6.10933 48.1108 6.23533 48.8015 6.31L50.5375 6.492C51.3308 6.56667 51.9562 6.69733 52.4135 6.884C52.8708 7.07067 53.1928 7.31333 53.3795 7.612C53.5755 7.91067 53.6735 8.27 53.6735 8.69ZM62.9704 8.69C62.9704 9.194 62.8164 9.63267 62.5084 10.006C62.2097 10.3793 61.7664 10.6687 61.1784 10.874C60.5997 11.0793 59.895 11.182 59.0644 11.182C58.215 11.182 57.4637 11.0653 56.8104 10.832C56.1664 10.5893 55.6624 10.2533 55.2984 9.824C54.9344 9.39467 54.7384 8.89533 54.7104 8.326H56.0264C56.0824 8.69 56.2457 9.012 56.5164 9.292C56.787 9.56267 57.1417 9.77267 57.5804 9.922C58.019 10.0713 58.5184 10.146 59.0784 10.146C59.8904 10.146 60.525 10.0247 60.9824 9.782C61.449 9.53 61.6824 9.18933 61.6824 8.76C61.6824 8.424 61.533 8.17667 61.2344 8.018C60.9357 7.85 60.3804 7.724 59.5684 7.64L58.0424 7.486C57.2864 7.41133 56.6797 7.276 56.2224 7.08C55.7744 6.87467 55.4524 6.62267 55.2564 6.324C55.0604 6.016 54.9624 5.67533 54.9624 5.302C54.9624 4.78867 55.1164 4.35933 55.4244 4.014C55.7417 3.65933 56.1804 3.39333 56.7404 3.216C57.3004 3.02933 57.949 2.936 58.6864 2.936C59.4704 2.936 60.1657 3.048 60.7724 3.272C61.3884 3.496 61.8784 3.80867 62.2424 4.21C62.6064 4.61133 62.807 5.07333 62.8444 5.596H61.5424C61.4957 5.29733 61.3557 5.02667 61.1224 4.784C60.889 4.532 60.5624 4.33133 60.1424 4.182C59.7317 4.03267 59.223 3.958 58.6164 3.958C57.8697 3.958 57.2864 4.06533 56.8664 4.28C56.4557 4.49467 56.2504 4.80733 56.2504 5.218C56.2504 5.51667 56.3857 5.75467 56.6564 5.932C56.927 6.10933 57.4077 6.23533 58.0984 6.31L59.8344 6.492C60.6277 6.56667 61.253 6.69733 61.7104 6.884C62.1677 7.07067 62.4897 7.31333 62.6764 7.612C62.8724 7.91067 62.9704 8.27 62.9704 8.69ZM72.9103 5.876V5.162L77.6843 11H76.0463L72.0703 6.044H72.6303L68.6403 11H67.0303L71.8043 5.19V5.834L67.4083 0.499999H69.0323L72.6863 4.994H72.0843L75.7243 0.499999H77.3063L72.9103 5.876ZM89.7216 11L89.4416 8.018L89.7916 7.052L89.4416 6.1L89.7216 3.118H91.0376L90.6736 7.052L91.0376 11H89.7216ZM90.2256 7.052C90.0203 7.87333 89.703 8.59667 89.2736 9.222C88.8536 9.838 88.3403 10.3187 87.7336 10.664C87.1363 11.0093 86.4736 11.182 85.7456 11.182C84.971 11.182 84.285 11.0093 83.6876 10.664C83.0903 10.3093 82.619 9.824 82.2736 9.208C81.9376 8.58267 81.7696 7.864 81.7696 7.052C81.7696 6.23067 81.9376 5.512 82.2736 4.896C82.619 4.28 83.0903 3.79933 83.6876 3.454C84.285 3.10867 84.971 2.936 85.7456 2.936C86.4736 2.936 87.1363 3.10867 87.7336 3.454C88.3403 3.79933 88.8583 4.28 89.2876 4.896C89.717 5.512 90.0296 6.23067 90.2256 7.052ZM83.0856 7.052C83.0856 7.64933 83.207 8.17667 83.4496 8.634C83.7016 9.09133 84.0423 9.45067 84.4716 9.712C84.9103 9.964 85.405 10.09 85.9556 10.09C86.5156 10.09 87.029 9.964 87.4956 9.712C87.9716 9.45067 88.3916 9.09133 88.7556 8.634C89.129 8.17667 89.4323 7.64933 89.6656 7.052C89.4323 6.45467 89.129 5.92733 88.7556 5.47C88.3916 5.01267 87.9716 4.658 87.4956 4.406C87.029 4.14467 86.5156 4.014 85.9556 4.014C85.405 4.014 84.9103 4.14467 84.4716 4.406C84.0423 4.658 83.7016 5.01267 83.4496 5.47C83.207 5.92733 83.0856 6.45467 83.0856 7.052ZM101.336 8.004C101.233 8.62933 100.977 9.18 100.566 9.656C100.165 10.132 99.6514 10.5053 99.0261 10.776C98.4007 11.0467 97.7101 11.182 96.9541 11.182C96.0767 11.182 95.3021 11.0093 94.6301 10.664C93.9581 10.3093 93.4307 9.824 93.0481 9.208C92.6747 8.58267 92.4881 7.864 92.4881 7.052C92.4881 6.24 92.6747 5.526 93.0481 4.91C93.4307 4.28467 93.9581 3.79933 94.6301 3.454C95.3021 3.10867 96.0767 2.936 96.9541 2.936C97.7101 2.936 98.4007 3.07133 99.0261 3.342C99.6514 3.60333 100.165 3.972 100.566 4.448C100.977 4.924 101.233 5.47933 101.336 6.114H100.006C99.8661 5.46067 99.5161 4.94733 98.9561 4.574C98.4054 4.19133 97.7381 4 96.9541 4C96.3194 4 95.7641 4.126 95.2881 4.378C94.8214 4.63 94.4574 4.98467 94.1961 5.442C93.9347 5.89 93.8041 6.42667 93.8041 7.052C93.8041 7.67733 93.9347 8.21867 94.1961 8.676C94.4574 9.13333 94.8214 9.488 95.2881 9.74C95.7641 9.98267 96.3194 10.104 96.9541 10.104C97.7474 10.104 98.4194 9.91267 98.9701 9.53C99.5301 9.14733 99.8754 8.63867 100.006 8.004H101.336ZM107.021 11.182C106.115 11.182 105.313 11.0093 104.613 10.664C103.922 10.3093 103.376 9.824 102.975 9.208C102.583 8.58267 102.387 7.864 102.387 7.052C102.387 6.23067 102.573 5.512 102.947 4.896C103.32 4.28 103.838 3.79933 104.501 3.454C105.163 3.10867 105.924 2.936 106.783 2.936C107.632 2.936 108.374 3.12267 109.008 3.496C109.643 3.86933 110.133 4.39667 110.479 5.078C110.833 5.75 111.011 6.534 111.011 7.43H103.367V6.408H110.465L109.709 6.87C109.681 6.282 109.541 5.77333 109.289 5.344C109.037 4.91467 108.696 4.58333 108.267 4.35C107.837 4.11667 107.338 4 106.769 4C106.153 4 105.616 4.126 105.159 4.378C104.701 4.62067 104.342 4.966 104.081 5.414C103.829 5.862 103.703 6.38933 103.703 6.996C103.703 7.63067 103.847 8.18133 104.137 8.648C104.426 9.11467 104.832 9.474 105.355 9.726C105.877 9.978 106.493 10.104 107.203 10.104C107.847 10.104 108.477 9.99667 109.093 9.782C109.718 9.56733 110.278 9.27333 110.773 8.9V9.908C110.287 10.3 109.709 10.6127 109.037 10.846C108.365 11.07 107.693 11.182 107.021 11.182ZM120.115 11L119.835 7.99L120.213 7.066L119.863 6.072L120.409 0.219999H121.725L121.067 6.996L121.431 11H120.115ZM120.605 7.052C120.399 7.87333 120.082 8.59667 119.653 9.222C119.233 9.838 118.719 10.3187 118.113 10.664C117.515 11.0093 116.853 11.182 116.125 11.182C115.35 11.182 114.664 11.0093 114.067 10.664C113.469 10.3093 112.998 9.824 112.653 9.208C112.317 8.58267 112.149 7.864 112.149 7.052C112.149 6.23067 112.317 5.512 112.653 4.896C112.998 4.28 113.469 3.79933 114.067 3.454C114.664 3.10867 115.35 2.936 116.125 2.936C116.853 2.936 117.515 3.10867 118.113 3.454C118.719 3.79933 119.237 4.28 119.667 4.896C120.096 5.512 120.409 6.23067 120.605 7.052ZM113.465 7.052C113.465 7.64933 113.586 8.17667 113.829 8.634C114.081 9.09133 114.421 9.45067 114.851 9.712C115.289 9.964 115.784 10.09 116.335 10.09C116.895 10.09 117.408 9.964 117.875 9.712C118.351 9.45067 118.771 9.09133 119.135 8.634C119.508 8.17667 119.811 7.64933 120.045 7.052C119.811 6.45467 119.508 5.92733 119.135 5.47C118.771 5.01267 118.351 4.658 117.875 4.406C117.408 4.14467 116.895 4.014 116.335 4.014C115.784 4.014 115.289 4.14467 114.851 4.406C114.421 4.658 114.081 5.01267 113.829 5.47C113.586 5.92733 113.465 6.45467 113.465 7.052ZM127.543 11.182C126.619 11.182 125.802 11.0093 125.093 10.664C124.393 10.3187 123.847 9.83333 123.455 9.208C123.063 8.58267 122.867 7.864 122.867 7.052C122.867 6.23067 123.063 5.512 123.455 4.896C123.847 4.28 124.393 3.79933 125.093 3.454C125.802 3.10867 126.619 2.936 127.543 2.936C128.476 2.936 129.293 3.10867 129.993 3.454C130.693 3.79933 131.239 4.28 131.631 4.896C132.032 5.512 132.233 6.23067 132.233 7.052C132.233 7.864 132.032 8.58267 131.631 9.208C131.239 9.83333 130.693 10.3187 129.993 10.664C129.293 11.0093 128.476 11.182 127.543 11.182ZM127.543 10.104C128.234 10.104 128.831 9.98267 129.335 9.74C129.839 9.488 130.226 9.13333 130.497 8.676C130.777 8.21867 130.917 7.67733 130.917 7.052C130.917 6.436 130.777 5.89933 130.497 5.442C130.226 4.98467 129.839 4.63 129.335 4.378C128.831 4.126 128.234 4 127.543 4C126.862 4 126.264 4.126 125.751 4.378C125.247 4.63 124.86 4.98467 124.589 5.442C124.318 5.89933 124.183 6.436 124.183 7.052C124.183 7.67733 124.318 8.21867 124.589 8.676C124.86 9.13333 125.247 9.488 125.751 9.74C126.264 9.98267 126.862 10.104 127.543 10.104ZM132.287 11L136.165 6.45L136.151 7.388L132.511 3.118H134.037L136.991 6.562H136.235L139.203 3.118H140.673L136.991 7.402L136.963 6.394L140.897 11H139.399L136.179 7.262H136.949L133.743 11H132.287ZM145.185 11.182C144.466 11.182 143.855 11.0373 143.351 10.748C142.856 10.4493 142.474 10.02 142.203 9.46C141.942 8.9 141.811 8.228 141.811 7.444V3.118H143.099V7.234C143.099 8.16733 143.309 8.87667 143.729 9.362C144.149 9.838 144.76 10.076 145.563 10.076C146.132 10.076 146.627 9.95 147.047 9.698C147.467 9.43667 147.794 9.07267 148.027 8.606C148.26 8.13933 148.377 7.598 148.377 6.982L148.881 7.276C148.825 8.06933 148.629 8.76 148.293 9.348C147.966 9.936 147.537 10.3887 147.005 10.706C146.473 11.0233 145.866 11.182 145.185 11.182ZM148.811 11L148.377 8.312V3.118H149.665V8.508L150.099 11H148.811ZM151.471 3.118H152.759L153.207 5.792V11H151.919V5.61L151.471 3.118ZM156.469 2.936C157.206 2.936 157.832 3.08533 158.345 3.384C158.858 3.67333 159.25 4.098 159.521 4.658C159.792 5.20867 159.927 5.876 159.927 6.66V11H158.639V6.884C158.639 5.94133 158.42 5.232 157.981 4.756C157.552 4.27067 156.922 4.028 156.091 4.028C155.512 4.028 155.004 4.15867 154.565 4.42C154.136 4.68133 153.8 5.04533 153.557 5.512C153.324 5.96933 153.207 6.506 153.207 7.122L152.689 6.758C152.754 5.974 152.955 5.29733 153.291 4.728C153.627 4.15867 154.066 3.72 154.607 3.412C155.158 3.09467 155.778 2.936 156.469 2.936ZM169.388 11L169.108 8.018L169.458 7.052L169.108 6.1L169.388 3.118H170.704L170.34 7.052L170.704 11H169.388ZM169.892 7.052C169.686 7.87333 169.369 8.59667 168.94 9.222C168.52 9.838 168.006 10.3187 167.4 10.664C166.802 11.0093 166.14 11.182 165.412 11.182C164.637 11.182 163.951 11.0093 163.354 10.664C162.756 10.3093 162.285 9.824 161.94 9.208C161.604 8.58267 161.436 7.864 161.436 7.052C161.436 6.23067 161.604 5.512 161.94 4.896C162.285 4.28 162.756 3.79933 163.354 3.454C163.951 3.10867 164.637 2.936 165.412 2.936C166.14 2.936 166.802 3.10867 167.4 3.454C168.006 3.79933 168.524 4.28 168.954 4.896C169.383 5.512 169.696 6.23067 169.892 7.052ZM162.752 7.052C162.752 7.64933 162.873 8.17667 163.116 8.634C163.368 9.09133 163.708 9.45067 164.138 9.712C164.576 9.964 165.071 10.09 165.622 10.09C166.182 10.09 166.695 9.964 167.162 9.712C167.638 9.45067 168.058 9.09133 168.422 8.634C168.795 8.17667 169.098 7.64933 169.332 7.052C169.098 6.45467 168.795 5.92733 168.422 5.47C168.058 5.01267 167.638 4.658 167.162 4.406C166.695 4.14467 166.182 4.014 165.622 4.014C165.071 4.014 164.576 4.14467 164.138 4.406C163.708 4.658 163.368 5.01267 163.116 5.47C162.873 5.92733 162.752 6.45467 162.752 7.052Z" fill="white"/>
</svg>
